<svg version="1.1" id="Layer_1" xmlns="http://www.w3.org/2000/svg" xmlns:xlink="http://www.w3.org/1999/xlink" x="0px" y="0px"
	 width="100%" viewBox="0 0 117 150" enable-background="new 0 0 117 150" xml:space="preserve">
<path fill="#000000" opacity="1.000000" stroke="none" 
	d="
M118.000000,70.000000 
	C118.000000,97.333336 118.000000,124.166664 118.000000,151.000000 
	C79.000000,151.000000 40.000000,151.000000 1.000000,151.000000 
	C1.000000,101.000000 1.000000,51.000000 1.000000,1.000000 
	C40.000000,1.000000 79.000000,1.000000 118.000000,1.000000 
	C118.000000,23.833334 118.000000,46.666668 118.000000,70.000000 
M81.986420,15.417159 
	C81.935951,15.241742 81.885490,15.066326 81.961914,14.177095 
	C80.608131,11.629401 79.420425,8.969399 77.813393,6.592964 
	C77.225319,5.723351 75.584030,5.032955 74.529243,5.157658 
	C73.411674,5.289783 72.109085,6.305795 71.520813,7.307722 
	C71.271965,7.731561 72.751060,9.050881 73.251343,10.059157 
	C74.205704,11.982602 75.021271,13.974910 75.070190,15.948434 
	C72.984978,15.418122 70.923454,14.719462 68.805550,14.421556 
	C67.563881,14.246902 66.232422,14.710605 64.195404,14.986454 
	C61.619328,14.679396 58.913387,13.705974 56.489223,14.178410 
	C44.794609,16.457529 33.556248,20.464418 25.377472,29.401167 
	C16.355972,39.258743 13.886789,51.919014 13.046936,65.735886 
	C13.024460,68.522354 13.001984,71.308815 12.633389,74.763626 
	C11.770336,78.183144 11.159677,81.511276 15.518395,83.628807 
	C15.504299,84.050064 15.490204,84.471313 14.809367,84.860504 
	C15.213009,86.406998 15.616651,87.953484 16.138996,90.230110 
	C16.931862,92.770721 17.724726,95.311340 18.097334,98.447891 
	C18.595110,103.363152 20.633415,107.347115 24.713839,110.345787 
	C27.912350,112.696350 30.865644,115.380585 33.353996,118.291924 
	C32.078030,119.518532 30.705505,120.660660 29.544321,121.987701 
	C26.156776,125.859123 24.605770,130.292053 27.007311,135.140549 
	C28.659063,138.475281 30.910231,141.461472 35.591702,140.512039 
	C36.321468,140.364014 37.434155,141.594055 38.221352,142.342880 
	C39.990078,144.025391 41.525566,145.985306 43.434601,147.475327 
	C44.481655,148.292587 46.388680,149.045807 47.367222,148.611008 
	C48.282112,148.204483 49.071579,146.105927 48.897507,144.899002 
	C48.082203,139.245895 46.915070,133.643555 45.968494,127.308914 
	C45.652470,125.267555 45.336445,123.226204 45.655830,121.020699 
	C46.091003,121.049881 46.526180,121.079063 47.102695,121.590706 
	C47.394131,121.672951 47.685566,121.755188 48.833488,121.983688 
	C53.886894,122.044212 58.940304,122.104729 64.834251,122.022781 
	C66.250946,121.960648 67.667633,121.898521 69.895676,121.978180 
	C71.941040,121.699203 73.986397,121.420227 76.828217,121.020462 
	C79.025688,120.323494 81.223160,119.626534 83.544800,119.014610 
	C83.544800,119.014610 83.633560,118.893074 84.467453,118.993660 
	C87.666649,117.341400 90.865837,115.689140 94.002159,114.010010 
	C94.002159,114.010010 94.031204,114.071915 94.753716,113.998856 
	C96.540329,112.347664 98.326942,110.696472 100.035217,109.014053 
	C100.035217,109.014053 100.009399,109.094337 100.501968,108.958069 
	C100.613159,108.671913 100.724350,108.385750 101.111137,107.399536 
	C101.732689,103.940788 102.354240,100.482040 103.553352,96.565376 
	C105.349480,91.237480 107.312088,85.956779 108.843376,80.553825 
	C109.321808,78.865746 108.636200,76.847755 108.210594,74.264656 
	C108.102844,73.766006 107.995087,73.267357 108.034767,71.973686 
	C109.566483,65.367180 108.652893,59.050095 105.932823,52.214138 
	C105.839348,50.963451 105.745880,49.712761 105.195496,47.805187 
	C103.814552,44.166382 102.433601,40.527576 101.019386,36.166340 
	C98.096169,33.088608 95.203445,29.981100 92.239075,26.943533 
	C90.238510,24.893564 88.136887,22.942215 86.019638,20.956528 
	C86.019638,20.956528 86.004311,21.016199 86.635132,20.743116 
	C86.601837,18.779219 91.516113,17.168737 86.813454,14.302815 
	C85.869392,14.829659 84.925323,15.356503 83.351387,16.007858 
	C82.925133,15.991213 82.498871,15.974567 81.986420,15.417159 
z"/>
<path fill="#E9E9E7" opacity="1.000000" stroke="none" 
	d="
M13.207445,64.926826 
	C13.886789,51.919014 16.355972,39.258743 25.377472,29.401167 
	C33.556248,20.464418 44.794609,16.457529 56.489223,14.178410 
	C58.913387,13.705974 61.619328,14.679396 64.890907,15.122616 
	C67.367439,19.503870 69.148476,23.748962 71.026703,28.224960 
	C71.291779,28.770794 71.549477,28.968798 71.874298,29.077290 
	C71.851608,29.104702 71.884430,29.167839 71.886414,29.566498 
	C72.480995,34.058460 73.073593,38.151768 73.746727,42.801422 
	C73.471909,42.764530 74.244553,42.868252 75.199722,43.295303 
	C75.889656,46.801456 76.397064,49.984283 76.900963,53.145073 
	C80.140259,49.489281 82.939774,45.796188 77.081474,41.595772 
	C77.403870,40.189930 77.733719,39.126766 78.385406,37.888420 
	C81.131355,37.116322 83.555473,36.519402 86.188644,35.891365 
	C86.669090,35.766163 86.897659,35.609592 87.342850,35.334007 
	C87.770798,35.223175 87.939285,35.168869 88.505722,35.107285 
	C93.413193,32.572975 97.020592,36.173023 101.052658,36.888771 
	C102.433601,40.527576 103.814552,44.166382 105.259567,48.252846 
	C105.323647,48.700500 105.017662,48.966217 104.741821,49.177536 
	C104.647339,50.598618 104.828712,51.808380 105.005600,53.010353 
	C105.001129,53.002563 104.987373,52.990429 104.915955,53.382057 
	C105.234329,55.494408 105.965294,57.229427 105.893997,58.930832 
	C105.846443,60.065762 104.656044,61.152805 103.595917,62.157265 
	C100.508003,63.049927 97.801292,64.046600 94.821213,65.191818 
	C94.044823,65.704102 93.541801,66.067825 92.682861,66.338867 
	C90.249611,66.119606 88.172264,65.993019 85.787781,65.673874 
	C77.560036,62.144848 69.607071,59.264610 60.997379,63.247734 
	C60.603897,63.429771 59.888638,62.870041 59.309444,62.703941 
	C52.646317,60.793152 46.174400,61.028809 39.737522,64.359390 
	C39.060860,64.551956 38.639271,64.837234 37.936226,65.209511 
	C37.483391,65.392448 37.312019,65.488380 36.790310,65.506927 
	C33.930996,65.714073 31.422022,65.998611 28.872997,66.227135 
	C28.832947,66.171112 28.698841,66.139687 28.585432,65.839371 
	C27.641905,65.338196 26.811785,65.137352 25.835732,64.859688 
	C25.689796,64.782875 25.360723,64.760498 25.183605,64.547119 
	C24.662161,64.225609 24.317833,64.117462 23.700161,63.845661 
	C21.938808,63.399380 20.450798,63.116764 18.614338,62.873764 
	C16.579737,63.584530 14.893591,64.255676 13.207445,64.926826 
M26.430052,43.469955 
	C25.927265,45.445194 25.424479,47.420437 24.921692,49.395679 
	C25.403337,49.666782 25.884981,49.937885 26.366627,50.208988 
	C29.406845,47.543377 34.814411,48.469143 36.312695,42.371460 
	C37.847446,38.842613 39.382202,35.313766 40.916958,31.784922 
	C40.478016,31.439255 40.039078,31.093590 39.600136,30.747925 
	C33.904636,33.106064 30.224112,37.796997 26.430052,43.469955 
M32.863930,53.869637 
	C32.777397,53.139462 32.690865,52.409283 32.604336,51.679108 
	C30.490244,52.047874 28.376150,52.416637 25.879465,52.852139 
	C27.533897,57.427094 29.856907,55.926617 32.863930,53.869637 
z"/>
<path fill="#0A0807" opacity="1.000000" stroke="none" 
	d="
M18.517591,97.851952 
	C17.724726,95.311340 16.931862,92.770721 16.245453,89.575211 
	C17.549719,89.115982 18.747526,89.311646 19.607718,89.452164 
	C20.084312,87.119667 20.527323,84.951523 21.355993,82.778534 
	C22.766130,82.713608 23.790607,82.653519 25.161400,82.649643 
	C26.244717,81.983154 26.981716,81.260445 27.718719,80.537735 
	C26.871542,79.955658 26.024364,79.373581 24.832928,78.651245 
	C19.996550,76.978096 17.761305,79.901146 15.617251,83.004242 
	C11.159677,81.511276 11.770336,78.183144 13.061571,74.693420 
	C18.660767,74.463829 23.831779,74.304436 29.388634,74.076691 
	C33.559902,73.777512 37.345325,73.546692 41.540634,73.291199 
	C49.956612,73.445488 57.962708,73.624451 66.434647,73.860306 
	C72.286842,74.161598 77.673187,74.406013 83.512573,74.760727 
	C88.764671,74.905739 93.563683,74.948807 98.362793,74.972351 
	C101.736267,74.988907 105.109886,74.978920 108.483437,74.980789 
	C108.636200,76.847755 109.321808,78.865746 108.843376,80.553825 
	C107.312088,85.956779 105.349480,91.237480 102.851166,96.824371 
	C98.690994,97.362740 95.233025,97.642105 91.331482,97.809830 
	C87.751915,97.801811 84.563911,97.584511 81.491844,98.082481 
	C76.597351,98.875870 73.399155,96.860779 70.954979,92.578583 
	C70.217857,91.537910 69.570801,90.784233 69.010117,89.662895 
	C66.594002,82.821198 60.470062,84.485771 55.423244,82.955345 
	C54.186863,85.395874 53.040127,87.659447 51.560230,90.080673 
	C50.797920,92.103149 50.368774,93.967972 49.584576,95.890663 
	C48.143066,96.366333 47.056614,96.784142 45.508141,97.138412 
	C39.383007,97.130066 33.719894,97.185249 27.646397,97.177162 
	C26.429138,97.268593 25.622269,97.423279 24.603836,97.508728 
	C24.392271,97.439476 24.021481,97.690399 23.636280,97.548904 
	C21.673248,97.555588 20.095421,97.703773 18.517591,97.851952 
M84.325577,85.089050 
	C85.542168,84.213570 86.758766,83.338081 87.975357,82.462593 
	C87.851967,82.073212 87.728577,81.683830 87.605186,81.294449 
	C85.792831,81.570839 82.638306,81.439842 82.408607,82.196617 
	C81.570892,84.956520 81.709717,88.012848 81.445938,91.401703 
	C85.412971,90.155869 88.189995,89.215790 84.325577,85.089050 
M77.807953,82.815338 
	C76.834663,82.276176 75.861382,81.737022 74.888092,81.197861 
	C73.952995,82.931519 72.347443,84.641518 72.285194,86.405968 
	C72.230896,87.944687 73.916626,89.544800 75.079842,91.540306 
	C75.896729,88.402115 76.563675,85.839958 77.807953,82.815338 
M20.300333,91.368164 
	C20.300333,91.368164 20.528259,91.480553 20.528259,91.480553 
	C20.528259,91.480553 20.471878,91.192146 20.300333,91.368164 
z"/>
<path fill="#FBC824" opacity="1.000000" stroke="none" 
	d="
M24.815401,97.577972 
	C25.622269,97.423279 26.429138,97.268593 27.983269,97.404755 
	C34.477077,97.531059 40.223618,97.366501 45.970161,97.201950 
	C47.056614,96.784142 48.143066,96.366333 49.602577,96.182816 
	C49.988445,96.611816 50.001251,96.806519 50.011604,97.370407 
	C49.911320,99.015701 49.773338,100.291847 49.774239,101.567894 
	C49.774338,101.703957 50.586010,101.839455 51.368992,101.983223 
	C52.410755,102.004005 53.104713,102.016792 53.872643,102.313828 
	C54.285141,103.031471 54.623669,103.464874 55.205307,104.028938 
	C55.708244,104.418266 55.968071,104.676918 55.963516,105.076706 
	C53.512203,110.356384 57.812088,107.401886 59.567936,108.129395 
	C60.835472,108.197159 61.762669,108.181511 62.947906,108.329414 
	C64.514336,107.363068 65.822723,106.233177 67.349571,104.888222 
	C67.412971,103.721176 67.257912,102.769196 67.063705,101.436737 
	C67.014091,100.036713 67.003632,99.017166 67.363716,97.950256 
	C68.837852,96.223801 69.941452,94.544685 71.045044,92.865578 
	C73.399155,96.860779 76.597351,98.875870 81.491844,98.082481 
	C84.563911,97.584511 87.751915,97.801811 91.655106,98.059723 
	C94.486588,98.770859 96.550873,99.120468 99.307724,99.587372 
	C96.659157,106.027931 92.483261,110.228592 86.630714,113.035187 
	C80.731651,115.864098 74.929138,118.894356 69.084328,121.836395 
	C67.667633,121.898521 66.250946,121.960648 64.077850,121.914322 
	C60.956284,121.199356 58.527420,120.770027 56.239853,119.947670 
	C52.099979,118.459435 48.044399,116.736717 44.014069,114.746284 
	C44.871708,113.381500 45.940430,112.486191 46.375603,111.348541 
	C46.693012,110.518738 46.175419,109.369530 46.030067,108.362717 
	C45.188923,108.688690 43.678349,108.910675 43.609074,109.356567 
	C42.822674,114.418602 38.895416,112.685181 35.956261,113.055939 
	C35.961636,113.052673 35.939198,113.073669 35.919022,112.727844 
	C34.921768,111.592239 33.944695,110.802460 32.680534,110.130173 
	C28.396557,107.275620 24.399668,104.303566 20.118196,101.119911 
	C22.193073,99.498993 23.151417,98.750328 24.243477,97.957870 
	C24.555893,97.844574 24.701962,97.732536 24.815401,97.577972 
z"/>
<path fill="#2B9E0C" opacity="1.000000" stroke="none" 
	d="
M45.873619,128.023071 
	C46.915070,133.643555 48.082203,139.245895 48.897507,144.899002 
	C49.071579,146.105927 48.282112,148.204483 47.367222,148.611008 
	C46.388680,149.045807 44.481655,148.292587 43.434601,147.475327 
	C41.525566,145.985306 39.990078,144.025391 38.221352,142.342880 
	C37.434155,141.594055 36.321468,140.364014 35.591702,140.512039 
	C30.910231,141.461472 28.659063,138.475281 27.007311,135.140549 
	C24.605770,130.292053 26.156776,125.859123 29.544321,121.987701 
	C30.705505,120.660660 32.078030,119.518532 33.984398,118.220482 
	C35.752281,117.845436 36.889767,117.541824 38.030479,117.605530 
	C39.547211,122.695976 41.060715,127.419098 42.656742,132.399765 
	C42.836891,130.840149 42.876053,129.375687 43.284317,128.022598 
	C43.356293,127.784058 44.971226,128.011063 45.873619,128.023071 
M32.445999,130.570724 
	C31.935913,129.726959 31.425827,128.883194 30.915741,128.039429 
	C30.471382,128.850784 30.027023,129.662125 29.582664,130.473480 
	C30.361410,130.623047 31.140156,130.772614 32.445999,130.570724 
z"/>
<path fill="#FBD46A" opacity="1.000000" stroke="none" 
	d="
M69.490005,121.907288 
	C74.929138,118.894356 80.731651,115.864098 86.630714,113.035187 
	C92.483261,110.228592 96.659157,106.027931 99.307724,99.587372 
	C96.550873,99.120468 94.486588,98.770859 92.098671,98.171356 
	C95.233025,97.642105 98.690994,97.362740 102.562378,97.053329 
	C102.354240,100.482040 101.732689,103.940788 100.769714,107.851326 
	C100.188194,108.513641 100.048561,108.777382 100.009399,109.094337 
	C100.009399,109.094337 100.035217,109.014053 99.704971,108.974266 
	C97.593559,110.646957 95.812386,112.359444 94.031204,114.071915 
	C94.031204,114.071915 94.002159,114.010010 93.654175,113.938019 
	C90.081985,115.541718 86.857773,117.217392 83.633560,118.893066 
	C83.633560,118.893074 83.544800,119.014610 83.051720,118.894073 
	C80.383011,119.562782 78.207390,120.352020 76.031761,121.141251 
	C73.986397,121.420227 71.941040,121.699203 69.490005,121.907288 
z"/>
<path fill="#FBC82B" opacity="1.000000" stroke="none" 
	d="
M108.347015,74.622726 
	C105.109886,74.978920 101.736267,74.988907 98.362793,74.972351 
	C93.563683,74.948807 88.764671,74.905739 83.604309,74.442245 
	C84.809418,73.350342 86.375839,72.687218 88.364334,72.016800 
	C91.189690,71.341545 93.592979,70.673569 96.195969,69.830872 
	C97.091782,69.552078 97.787903,69.448021 98.484024,69.343956 
	C97.095474,68.235001 95.645004,68.265465 94.264954,67.968552 
	C93.768967,67.861839 93.442574,66.966805 93.038773,66.431541 
	C93.541801,66.067825 94.044823,65.704102 95.213120,65.195709 
	C98.606812,64.369064 101.335228,63.687080 104.301865,63.165253 
	C105.655838,66.473167 106.771584,69.620941 107.887329,72.768707 
	C107.995087,73.267357 108.102844,73.766006 108.347015,74.622726 
z"/>
<path fill="#F5D37B" opacity="1.000000" stroke="none" 
	d="
M38.027248,117.238220 
	C36.889767,117.541824 35.752281,117.845436 34.271339,118.032806 
	C30.865644,115.380585 27.912350,112.696350 24.713839,110.345787 
	C20.633415,107.347115 18.595110,103.363152 18.307463,98.149918 
	C20.095421,97.703773 21.673248,97.555588 23.627909,97.635384 
	C24.004740,97.863358 24.109760,98.001656 24.109760,98.001656 
	C23.151417,98.750328 22.193073,99.498993 20.118196,101.119911 
	C24.399668,104.303566 28.396557,107.275620 32.674194,110.502739 
	C33.949696,111.529770 34.944447,112.301720 35.939198,113.073669 
	C35.939198,113.073669 35.961636,113.052673 36.117584,113.314087 
	C37.138187,114.666573 38.002834,115.757660 38.654709,116.940262 
	C38.441940,117.031776 38.027248,117.238220 38.027248,117.238220 
z"/>
<path fill="#F2D782" opacity="1.000000" stroke="none" 
	d="
M75.894463,15.938628 
	C75.021271,13.974910 74.205704,11.982602 73.251343,10.059157 
	C72.751060,9.050881 71.271965,7.731561 71.520813,7.307722 
	C72.109085,6.305795 73.411674,5.289783 74.529243,5.157658 
	C75.584030,5.032955 77.225319,5.723351 77.813393,6.592964 
	C79.420425,8.969399 80.608131,11.629401 81.633354,14.444187 
	C81.525497,16.151201 81.746201,17.591125 81.965057,19.398783 
	C81.961807,20.501638 81.960396,21.236763 81.557358,21.975004 
	C78.447639,21.301907 75.739548,20.625690 73.072990,19.655115 
	C74.041161,18.220047 74.967812,17.079338 75.894463,15.938628 
z"/>
<path fill="#E1D5AD" opacity="1.000000" stroke="none" 
	d="
M101.036026,36.527557 
	C97.020592,36.173023 93.413193,32.572975 88.641586,34.792183 
	C90.170921,33.094391 91.962334,31.704409 94.663353,29.608664 
	C92.560669,29.404137 91.702354,29.320650 90.503876,29.158211 
	C88.027328,26.715912 85.890945,24.352562 84.051849,21.874809 
	C84.926239,21.489185 85.503357,21.217968 86.080467,20.946751 
	C88.136887,22.942215 90.238510,24.893564 92.239075,26.943533 
	C95.203445,29.981100 98.096169,33.088608 101.036026,36.527557 
z"/>
<path fill="#F3CA6D" opacity="1.000000" stroke="none" 
	d="
M43.953629,115.111900 
	C48.044399,116.736717 52.099979,118.459435 56.239853,119.947670 
	C58.527420,120.770027 60.956284,121.199356 63.657578,121.985565 
	C58.940304,122.104729 53.886894,122.044212 48.434502,121.626419 
	C48.065361,120.665176 48.095200,120.061203 48.125038,119.457230 
	C47.737141,120.007568 47.349247,120.557907 46.961349,121.108246 
	C46.526180,121.079063 46.091003,121.049881 45.031601,120.952316 
	C43.268368,119.594009 42.129368,118.304085 41.141403,116.736374 
	C42.179501,116.009689 43.066563,115.560791 43.953629,115.111900 
z"/>
<path fill="#ECC556" opacity="1.000000" stroke="none" 
	d="
M29.002794,74.145042 
	C23.831779,74.304436 18.660767,74.463829 13.234630,74.359253 
	C13.001984,71.308815 13.024460,68.522354 13.127191,65.331360 
	C14.893591,64.255676 16.579737,63.584530 18.560511,63.236183 
	C14.732091,69.228127 14.889947,70.318001 19.978773,71.436127 
	C22.097883,76.178337 26.091997,73.051224 29.002794,74.145042 
z"/>
<path fill="#DECC8F" opacity="1.000000" stroke="none" 
	d="
M75.482330,15.943531 
	C74.967812,17.079338 74.041161,18.220047 72.754829,19.727573 
	C72.513306,23.093094 72.631462,26.091801 72.532379,29.099354 
	C72.315147,29.108202 71.884430,29.167839 71.884430,29.167839 
	C71.884430,29.167839 71.851608,29.104702 71.780670,28.846710 
	C71.523964,28.293056 71.263885,28.094835 70.929512,27.994057 
	C69.148476,23.748962 67.367439,19.503870 65.263885,15.072967 
	C66.232422,14.710605 67.563881,14.246902 68.805550,14.421556 
	C70.923454,14.719462 72.984978,15.418122 75.482330,15.943531 
M70.518425,18.438459 
	C70.518425,18.438459 70.561668,18.521225 70.518425,18.438459 
z"/>
<path fill="#206C0F" opacity="1.000000" stroke="none" 
	d="
M40.990364,117.014160 
	C42.129368,118.304085 43.268368,119.594009 44.713894,121.034393 
	C45.336445,123.226204 45.652470,125.267555 45.921059,127.665993 
	C44.971226,128.011063 43.356293,127.784058 43.284317,128.022598 
	C42.876053,129.375687 42.836891,130.840149 42.656742,132.399765 
	C41.060715,127.419098 39.547211,122.695976 38.030479,117.605530 
	C38.027248,117.238220 38.441940,117.031776 39.006611,116.996017 
	C40.044312,116.978226 40.517338,116.996193 40.990364,117.014160 
z"/>
<path fill="#C3B691" opacity="1.000000" stroke="none" 
	d="
M107.961044,72.371201 
	C106.771584,69.620941 105.655838,66.473167 104.275375,62.979713 
	C104.010651,62.634029 103.977112,62.261280 103.977112,62.261280 
	C104.656044,61.152805 105.846443,60.065762 105.893997,58.930832 
	C105.965294,57.229427 105.234329,55.494408 105.114502,53.349766 
	C105.384468,52.925850 105.784866,52.964333 105.784866,52.964333 
	C108.652893,59.050095 109.566483,65.367180 107.961044,72.371201 
z"/>
<path fill="#BBBBBB" opacity="1.000000" stroke="none" 
	d="
M15.567823,83.316528 
	C17.761305,79.901146 19.996550,76.978096 24.784172,79.031265 
	C24.991478,80.565506 24.903282,81.579468 24.815086,82.593430 
	C23.790607,82.653519 22.766130,82.713608 21.140648,82.579453 
	C18.851799,83.221001 17.163954,84.056786 15.476109,84.892570 
	C15.490204,84.471313 15.504299,84.050064 15.567823,83.316528 
z"/>
<path fill="#787878" opacity="1.000000" stroke="none" 
	d="
M15.142738,84.876541 
	C17.163954,84.056786 18.851799,83.221001 20.754990,82.584290 
	C20.527323,84.951523 20.084312,87.119667 19.607718,89.452164 
	C18.747526,89.311646 17.549719,89.115982 16.186100,89.210144 
	C15.616651,87.953484 15.213009,86.406998 15.142738,84.876541 
z"/>
<path fill="#FAD146" opacity="1.000000" stroke="none" 
	d="
M86.050049,20.951637 
	C85.503357,21.217968 84.926239,21.489185 83.754257,21.887276 
	C82.759262,22.000061 82.359123,21.985973 81.958984,21.971886 
	C81.960396,21.236763 81.961807,20.501638 81.987076,19.376713 
	C82.010941,18.986912 82.056984,18.944881 82.390587,18.872574 
	C83.143211,17.827959 83.562241,16.855652 83.981262,15.883347 
	C84.925323,15.356503 85.869392,14.829659 86.876251,14.928604 
	C86.627472,17.374996 86.315887,19.195597 86.004311,21.016199 
	C86.004311,21.016199 86.019638,20.956528 86.050049,20.951637 
z"/>
<path fill="#F4EBD0" opacity="1.000000" stroke="none" 
	d="
M84.050507,118.943359 
	C86.857773,117.217392 90.081985,115.541718 93.685608,113.951462 
	C90.865837,115.689140 87.666649,117.341400 84.050507,118.943359 
z"/>
<path fill="#F4EBD0" opacity="1.000000" stroke="none" 
	d="
M94.392464,114.035385 
	C95.812386,112.359444 97.593559,110.646957 99.744141,108.989876 
	C98.326942,110.696472 96.540329,112.347664 94.392464,114.035385 
z"/>
<path fill="#F7DC7F" opacity="1.000000" stroke="none" 
	d="
M86.319717,20.879658 
	C86.315887,19.195597 86.627472,17.374996 86.996201,15.221414 
	C91.516113,17.168737 86.601837,18.779219 86.319717,20.879658 
z"/>
<path fill="#F4EBD0" opacity="1.000000" stroke="none" 
	d="
M76.429993,121.080856 
	C78.207390,120.352020 80.383011,119.562782 82.989639,118.851555 
	C81.223160,119.626534 79.025688,120.323494 76.429993,121.080856 
z"/>
<path fill="#FBD142" opacity="1.000000" stroke="none" 
	d="
M81.988922,19.008980 
	C81.746201,17.591125 81.525497,16.151201 81.569916,14.801094 
	C81.885490,15.066326 81.935951,15.241742 82.003342,16.060551 
	C82.032501,17.450922 82.044739,18.197903 82.056976,18.944881 
	C82.056984,18.944881 82.010941,18.986912 81.988922,19.008980 
z"/>
<path fill="#ECD587" opacity="1.000000" stroke="none" 
	d="
M82.390579,18.872574 
	C82.044739,18.197903 82.032501,17.450922 82.046432,16.330933 
	C82.498871,15.974567 82.925133,15.991213 83.666321,15.945602 
	C83.562241,16.855652 83.143211,17.827959 82.390579,18.872574 
z"/>
<path fill="#E9E9E7" opacity="1.000000" stroke="none" 
	d="
M105.858841,52.589233 
	C105.784866,52.964333 105.384468,52.925850 105.185921,52.958138 
	C104.987373,52.990429 105.001129,53.002563 105.046539,52.606636 
	C105.067192,51.129211 105.042427,50.047714 105.017662,48.966217 
	C105.017662,48.966217 105.323647,48.700500 105.488029,48.581287 
	C105.745880,49.712761 105.839348,50.963451 105.858841,52.589233 
z"/>
<path fill="#FBC824" opacity="1.000000" stroke="none" 
	d="
M47.032021,121.349480 
	C47.349247,120.557907 47.737141,120.007568 48.125038,119.457230 
	C48.095200,120.061203 48.065361,120.665176 48.006264,121.553284 
	C47.685566,121.755188 47.394131,121.672951 47.032021,121.349480 
z"/>
<path fill="#F4EBD0" opacity="1.000000" stroke="none" 
	d="
M100.255684,109.026199 
	C100.048561,108.777382 100.188194,108.513641 100.631927,108.201355 
	C100.724350,108.385750 100.613159,108.671913 100.255684,109.026199 
z"/>
<path fill="#F9C92D" opacity="1.000000" stroke="none" 
	d="
M39.992599,64.452118 
	C46.174400,61.028809 52.646317,60.793152 59.309444,62.703941 
	C59.888638,62.870041 60.603897,63.429771 60.997379,63.247734 
	C69.607071,59.264610 77.560036,62.144848 85.719414,66.076073 
	C84.493721,67.458000 83.086273,68.753777 81.552826,68.925697 
	C78.429092,69.275894 75.237427,69.020096 71.795174,69.006149 
	C71.331474,68.991867 71.146339,68.985413 70.706802,68.722725 
	C67.986092,68.965492 65.519783,69.464485 62.670906,69.973495 
	C61.522995,69.982307 60.757652,69.981102 60.172501,69.740288 
	C60.359512,68.766747 60.366325,68.032822 60.373138,67.298889 
	C58.601738,67.847397 56.830338,68.395905 54.800072,69.123398 
	C54.012455,69.640709 53.458023,70.305779 52.958961,70.266548 
	C48.275185,69.898354 43.600880,69.409683 38.708870,68.739433 
	C37.004707,68.630028 35.515507,68.737015 33.586296,68.875618 
	C35.049736,67.520485 36.095192,66.552399 37.140648,65.584312 
	C37.312019,65.488380 37.483391,65.392448 38.179398,65.193138 
	C39.133553,64.877213 39.563076,64.664665 39.992599,64.452118 
z"/>
<path fill="#FDFDFD" opacity="1.000000" stroke="none" 
	d="
M26.986914,43.001183 
	C30.224112,37.796997 33.904636,33.106064 39.600136,30.747925 
	C40.039078,31.093590 40.478016,31.439255 40.916958,31.784922 
	C39.382202,35.313766 37.847446,38.842613 35.766441,42.689262 
	C32.475761,43.005108 29.731337,43.003147 26.986914,43.001183 
z"/>
<path fill="#FAC929" opacity="1.000000" stroke="none" 
	d="
M19.937628,71.032707 
	C14.889947,70.318001 14.732091,69.228127 18.908962,63.196564 
	C20.450798,63.116764 21.938808,63.399380 23.866062,64.072746 
	C24.657110,64.562492 25.008917,64.661499 25.360723,64.760498 
	C25.360723,64.760498 25.689796,64.782875 26.010654,65.126274 
	C27.120623,65.693008 27.909731,65.916351 28.698841,66.139687 
	C28.698841,66.139687 28.832947,66.171112 28.940891,66.499443 
	C29.725668,67.868050 30.402498,68.908318 30.630116,69.966545 
	C26.766476,70.333900 23.352053,70.683304 19.937628,71.032707 
z"/>
<path fill="#F5F5F5" opacity="1.000000" stroke="none" 
	d="
M26.708483,43.235569 
	C29.731337,43.003147 32.475761,43.005108 35.617718,43.010086 
	C34.814411,48.469143 29.406845,47.543377 26.366627,50.208988 
	C25.884981,49.937885 25.403337,49.666782 24.921692,49.395679 
	C25.424479,47.420437 25.927265,45.445194 26.708483,43.235569 
z"/>
<path fill="#F5D05E" opacity="1.000000" stroke="none" 
	d="
M72.073746,69.013977 
	C75.237427,69.020096 78.429092,69.275894 81.552826,68.925697 
	C83.086273,68.753777 84.493721,67.458000 86.026566,66.268631 
	C88.172264,65.993019 90.249611,66.119606 92.682861,66.338867 
	C93.442574,66.966805 93.768967,67.861839 94.264954,67.968552 
	C95.645004,68.265465 97.095474,68.235001 98.484024,69.343956 
	C97.787903,69.448021 97.091782,69.552078 95.794106,69.803886 
	C92.803360,69.898460 90.412338,69.887558 88.025360,69.783508 
	C82.707085,69.551712 77.390823,69.273354 72.073746,69.013977 
z"/>
<path fill="#C8C4BA" opacity="1.000000" stroke="none" 
	d="
M71.886414,29.566498 
	C71.884430,29.167839 72.315147,29.108202 72.717148,29.395718 
	C73.433929,30.771120 73.748711,31.859007 74.087265,33.287350 
	C75.428535,35.106407 76.746056,36.585003 78.063568,38.063602 
	C77.733719,39.126766 77.403870,40.189930 76.778458,41.639656 
	C75.994324,42.341469 75.505753,42.656719 75.017189,42.971973 
	C74.244553,42.868252 73.471909,42.764530 73.746727,42.801422 
	C73.073593,38.151768 72.480995,34.058460 71.886414,29.566498 
z"/>
<path fill="#B3B2B1" opacity="1.000000" stroke="none" 
	d="
M75.199722,43.295303 
	C75.505753,42.656719 75.994324,42.341469 76.785904,41.982334 
	C82.939774,45.796188 80.140259,49.489281 76.900963,53.145073 
	C76.397064,49.984283 75.889656,46.801456 75.199722,43.295303 
z"/>
<path fill="#DCCA93" opacity="1.000000" stroke="none" 
	d="
M78.385406,37.888420 
	C76.746056,36.585003 75.428535,35.106407 74.397263,33.428375 
	C77.217438,35.370422 79.712524,36.927547 82.854980,33.998226 
	C83.292961,33.589947 84.974113,34.515270 86.057701,35.098328 
	C86.016945,35.556431 85.998268,35.739452 85.979584,35.922478 
	C83.555473,36.519402 81.131355,37.116322 78.385406,37.888420 
z"/>
<path fill="#EDCA5D" opacity="1.000000" stroke="none" 
	d="
M31.079330,69.948593 
	C30.402498,68.908318 29.725668,67.868050 28.980942,66.555466 
	C31.422022,65.998611 33.930996,65.714073 36.790310,65.506927 
	C36.095192,66.552399 35.049736,67.520485 33.586296,68.875618 
	C35.515507,68.737015 37.004707,68.630028 38.501358,68.846207 
	C38.244080,69.352608 38.050011,69.592918 37.499832,69.912750 
	C35.075153,69.939659 33.077240,69.944130 31.079330,69.948593 
z"/>
<path fill="#E1E1E0" opacity="1.000000" stroke="none" 
	d="
M32.551128,53.990479 
	C29.856907,55.926617 27.533897,57.427094 25.879465,52.852139 
	C28.376150,52.416637 30.490244,52.047874 32.604336,51.679108 
	C32.690865,52.409283 32.777397,53.139462 32.551128,53.990479 
z"/>
<path fill="#DCCA93" opacity="1.000000" stroke="none" 
	d="
M90.844040,29.237164 
	C91.702354,29.320650 92.560669,29.404137 94.663353,29.608664 
	C91.962334,31.704409 90.170921,33.094391 88.243637,34.799469 
	C87.939285,35.168869 87.770798,35.223175 87.300186,35.198921 
	C86.998070,35.120358 86.892113,34.861927 86.944763,34.518261 
	C88.279617,32.528782 89.561829,30.882973 90.844040,29.237164 
z"/>
<path fill="#F5D05E" opacity="1.000000" stroke="none" 
	d="
M103.595917,62.157265 
	C103.977112,62.261280 104.010651,62.634029 104.037140,62.819565 
	C101.335228,63.687080 98.606812,64.369064 95.486496,65.047157 
	C97.801292,64.046600 100.508003,63.049927 103.595917,62.157265 
z"/>
<path fill="#C3B691" opacity="1.000000" stroke="none" 
	d="
M104.741821,49.177536 
	C105.042427,50.047714 105.067192,51.129211 105.051018,52.614426 
	C104.828712,51.808380 104.647339,50.598618 104.741821,49.177536 
z"/>
<path fill="#EDCA5D" opacity="1.000000" stroke="none" 
	d="
M28.585432,65.839371 
	C27.909731,65.916351 27.120623,65.693008 26.156590,65.203087 
	C26.811785,65.137352 27.641905,65.338196 28.585432,65.839371 
z"/>
<path fill="#EDCA5D" opacity="1.000000" stroke="none" 
	d="
M39.737526,64.359398 
	C39.563076,64.664665 39.133553,64.877213 38.460857,65.106140 
	C38.639271,64.837234 39.060860,64.551956 39.737526,64.359398 
z"/>
<path fill="#C8C4BA" opacity="1.000000" stroke="none" 
	d="
M71.026703,28.224960 
	C71.263885,28.094835 71.523964,28.293056 71.803360,28.819298 
	C71.549477,28.968798 71.291779,28.770794 71.026703,28.224960 
z"/>
<path fill="#E1D5AD" opacity="1.000000" stroke="none" 
	d="
M86.188644,35.891365 
	C85.998268,35.739452 86.016945,35.556431 86.260147,35.116814 
	C86.484680,34.860226 86.892113,34.861927 86.892113,34.861927 
	C86.892113,34.861927 86.998070,35.120358 87.040733,35.255447 
	C86.897659,35.609592 86.669090,35.766163 86.188644,35.891365 
z"/>
<path fill="#EDCA5D" opacity="1.000000" stroke="none" 
	d="
M25.183605,64.547119 
	C25.008917,64.661499 24.657110,64.562492 24.139404,64.236404 
	C24.317833,64.117462 24.662161,64.225609 25.183605,64.547119 
z"/>
<path fill="#FAC11C" opacity="1.000000" stroke="none" 
	d="
M37.926601,69.890305 
	C38.050011,69.592918 38.244080,69.352608 38.716324,69.062607 
	C43.600880,69.409683 48.275185,69.898354 52.958961,70.266548 
	C53.458023,70.305779 54.012455,69.640709 55.164276,69.141266 
	C57.188999,69.313400 58.590652,69.646652 59.992306,69.979897 
	C60.757652,69.981102 61.522995,69.982307 63.013401,70.017769 
	C66.146042,69.694336 68.553619,69.336639 70.961205,68.978951 
	C71.146339,68.985413 71.331474,68.991867 71.795174,69.006149 
	C77.390823,69.273354 82.707085,69.551712 88.025360,69.783508 
	C90.412338,69.887558 92.803360,69.898460 95.594406,69.978615 
	C93.592979,70.673569 91.189690,71.341545 87.902390,72.012131 
	C81.366226,72.008110 75.710121,71.885574 70.064720,72.077652 
	C68.681450,72.124718 67.333168,73.200554 65.968803,73.803413 
	C57.962708,73.624451 49.956612,73.445488 41.398872,72.980339 
	C39.873684,71.759537 38.900143,70.824921 37.926601,69.890305 
z"/>
<path fill="#F8BA19" opacity="1.000000" stroke="none" 
	d="
M50.014053,97.001221 
	C50.001251,96.806519 49.988445,96.611816 49.957634,96.124954 
	C50.368774,93.967972 50.797920,92.103149 51.962547,90.066223 
	C58.118973,88.468300 63.542919,86.685692 68.923744,90.030563 
	C69.570801,90.784233 70.217857,91.537910 70.954979,92.578583 
	C69.941452,94.544685 68.837852,96.223801 67.233154,97.738342 
	C66.513550,97.309723 66.241180,97.125137 65.739029,96.681137 
	C62.342354,96.227081 59.121601,96.111893 55.629402,95.871674 
	C54.555065,96.164322 53.752174,96.582008 52.582211,96.999802 
	C51.481441,97.000351 50.747749,97.000786 50.014053,97.001221 
z"/>
<path fill="#F6BA1A" opacity="1.000000" stroke="none" 
	d="
M37.499832,69.912750 
	C38.900143,70.824921 39.873684,71.759537 40.988991,73.005013 
	C37.345325,73.546692 33.559902,73.777512 29.388634,74.076691 
	C26.091997,73.051224 22.097883,76.178337 19.978773,71.436127 
	C23.352053,70.683304 26.766476,70.333900 30.630116,69.966545 
	C33.077240,69.944130 35.075153,69.939659 37.499832,69.912750 
z"/>
<path fill="#EDC24C" opacity="1.000000" stroke="none" 
	d="
M69.010117,89.662895 
	C63.542919,86.685692 58.118973,88.468300 52.295712,89.908569 
	C53.040127,87.659447 54.186863,85.395874 55.423244,82.955345 
	C60.470062,84.485771 66.594002,82.821198 69.010117,89.662895 
z"/>
<path fill="#A8A8A8" opacity="1.000000" stroke="none" 
	d="
M84.492096,85.392807 
	C88.189995,89.215790 85.412971,90.155869 81.445938,91.401703 
	C81.709717,88.012848 81.570892,84.956520 82.408607,82.196617 
	C82.638306,81.439842 85.792831,81.570839 87.605186,81.294449 
	C87.728577,81.683830 87.851967,82.073212 87.975357,82.462593 
	C86.758766,83.338081 85.542168,84.213570 84.492096,85.392807 
z"/>
<path fill="#EDC74D" opacity="1.000000" stroke="none" 
	d="
M66.434647,73.860306 
	C67.333168,73.200554 68.681450,72.124718 70.064720,72.077652 
	C75.710121,71.885574 81.366226,72.008110 87.480331,72.019409 
	C86.375839,72.687218 84.809418,73.350342 83.151268,74.331947 
	C77.673187,74.406013 72.286842,74.161598 66.434647,73.860306 
z"/>
<path fill="#969595" opacity="1.000000" stroke="none" 
	d="
M77.519287,83.046570 
	C76.563675,85.839958 75.896729,88.402115 75.079842,91.540306 
	C73.916626,89.544800 72.230896,87.944687 72.285194,86.405968 
	C72.347443,84.641518 73.952995,82.931519 74.888092,81.197861 
	C75.861382,81.737022 76.834663,82.276176 77.519287,83.046570 
z"/>
<path fill="#F9C722" opacity="1.000000" stroke="none" 
	d="
M45.508141,97.138412 
	C40.223618,97.366501 34.477077,97.531059 28.393660,97.468018 
	C33.719894,97.185249 39.383007,97.130066 45.508141,97.138412 
z"/>
<path fill="#787878" opacity="1.000000" stroke="none" 
	d="
M25.161400,82.649643 
	C24.903282,81.579468 24.991478,80.565506 25.128431,79.171524 
	C26.024364,79.373581 26.871542,79.955658 27.718719,80.537735 
	C26.981716,81.260445 26.244717,81.983154 25.161400,82.649643 
z"/>
<path fill="#F9C722" opacity="1.000000" stroke="none" 
	d="
M24.243477,97.957870 
	C24.109760,98.001656 24.004740,97.863358 24.013111,97.776878 
	C24.021481,97.690399 24.392271,97.439476 24.603836,97.508728 
	C24.701962,97.732536 24.555893,97.844574 24.243477,97.957870 
z"/>
<path fill="#787878" opacity="1.000000" stroke="none" 
	d="
M20.386105,91.280151 
	C20.471878,91.192146 20.528259,91.480553 20.528259,91.480553 
	C20.528259,91.480553 20.300333,91.368164 20.386105,91.280151 
z"/>
<path fill="#DC8E0E" opacity="1.000000" stroke="none" 
	d="
M55.900852,95.996712 
	C59.121601,96.111893 62.342354,96.227081 65.525452,96.912521 
	C65.681549,98.990982 65.875305,100.499199 65.965195,102.276398 
	C65.534569,103.013878 65.207802,103.482361 64.674507,104.063736 
	C64.216736,104.389099 64.065338,104.657814 64.002083,104.986839 
	C63.990364,104.990883 63.984741,105.015030 63.725494,105.204391 
	C63.332283,106.014168 63.198315,106.634583 62.981243,107.487045 
	C62.898140,107.719078 62.689865,108.165871 62.689865,108.165871 
	C61.762669,108.181511 60.835472,108.197159 59.503181,107.801254 
	C58.141357,106.571663 57.184628,105.753624 56.227898,104.935577 
	C55.968071,104.676918 55.708244,104.418266 55.263916,103.676918 
	C55.058647,101.437439 55.037876,99.680649 55.140564,97.687378 
	C55.476299,96.966164 55.688576,96.481438 55.900852,95.996712 
z"/>
<path fill="#F9C722" opacity="1.000000" stroke="none" 
	d="
M41.141403,116.736374 
	C40.517338,116.996193 40.044312,116.978226 39.219383,116.904495 
	C38.002834,115.757660 37.138187,114.666573 36.112209,113.317352 
	C38.895416,112.685181 42.822674,114.418602 43.609074,109.356567 
	C43.678349,108.910675 45.188923,108.688690 46.030067,108.362717 
	C46.175419,109.369530 46.693012,110.518738 46.375603,111.348541 
	C45.940430,112.486191 44.871708,113.381500 44.014069,114.746284 
	C43.066563,115.560791 42.179501,116.009689 41.141403,116.736374 
z"/>
<path fill="#F9BC17" opacity="1.000000" stroke="none" 
	d="
M50.011604,97.370407 
	C50.747749,97.000786 51.481441,97.000351 52.720825,97.295776 
	C53.503445,98.405716 53.780376,99.219803 54.041862,100.035767 
	C54.026417,100.037651 54.022743,100.006752 53.702583,100.033798 
	C52.595345,100.698967 51.808266,101.337090 51.021187,101.975220 
	C50.586010,101.839455 49.774338,101.703957 49.774239,101.567894 
	C49.773338,100.291847 49.911320,99.015701 50.011604,97.370407 
z"/>
<path fill="#9B7D45" opacity="1.000000" stroke="none" 
	d="
M55.963516,105.076706 
	C57.184628,105.753624 58.141357,106.571663 59.162842,107.717850 
	C57.812088,107.401886 53.512203,110.356384 55.963516,105.076706 
z"/>
<path fill="#D0963A" opacity="1.000000" stroke="none" 
	d="
M62.947906,108.329414 
	C62.689865,108.165871 62.898140,107.719078 63.213593,107.264069 
	C63.680946,106.211052 63.832844,105.613045 63.984741,105.015030 
	C63.984741,105.015030 63.990364,104.990883 64.389519,105.025513 
	C65.569489,105.074524 66.350296,105.088905 67.131111,105.103287 
	C65.822723,106.233177 64.514336,107.363068 62.947906,108.329414 
z"/>
<path fill="#B4893B" opacity="1.000000" stroke="none" 
	d="
M55.017101,97.923859 
	C55.037876,99.680649 55.058647,101.437439 55.020805,103.546249 
	C54.623669,103.464874 54.285141,103.031471 53.924736,101.978012 
	C53.942822,100.907555 53.982784,100.457153 54.022743,100.006752 
	C54.022743,100.006752 54.026417,100.037651 54.273960,99.844940 
	C54.686703,99.076103 54.851902,98.499977 55.017101,97.923859 
z"/>
<path fill="#F9C722" opacity="1.000000" stroke="none" 
	d="
M35.919022,112.727844 
	C34.944447,112.301720 33.949696,111.529770 32.961281,110.385246 
	C33.944695,110.802460 34.921768,111.592239 35.919022,112.727844 
z"/>
<path fill="#C28E3C" opacity="1.000000" stroke="none" 
	d="
M66.069061,102.007408 
	C65.875305,100.499199 65.681549,98.990982 65.701370,97.251389 
	C66.241180,97.125137 66.513550,97.309723 66.862610,97.785698 
	C67.003632,99.017166 67.014091,100.036713 67.004181,101.526398 
	C66.983818,101.996521 66.870407,102.177765 66.677246,102.101440 
	C66.484077,102.025124 66.069061,102.007408 66.069061,102.007408 
z"/>
<path fill="#B08437" opacity="1.000000" stroke="none" 
	d="
M67.349571,104.888222 
	C66.350296,105.088905 65.569489,105.074524 64.401237,105.021469 
	C64.065338,104.657814 64.216736,104.389099 64.996117,104.070374 
	C65.972969,103.368660 66.421692,102.773216 66.870407,102.177765 
	C66.870407,102.177765 66.983818,101.996521 67.043335,101.906868 
	C67.257912,102.769196 67.412971,103.721176 67.349571,104.888222 
z"/>
<path fill="#F9CB45" opacity="1.000000" stroke="none" 
	d="
M53.702587,100.033798 
	C53.982784,100.457153 53.942822,100.907555 53.850765,101.693764 
	C53.104713,102.016792 52.410755,102.004005 51.368992,101.983223 
	C51.808266,101.337090 52.595345,100.698967 53.702587,100.033798 
z"/>
<path fill="#52A93B" opacity="1.000000" stroke="none" 
	d="
M32.182449,130.746460 
	C31.140156,130.772614 30.361410,130.623047 29.582664,130.473480 
	C30.027023,129.662125 30.471382,128.850784 30.915741,128.039429 
	C31.425827,128.883194 31.935913,129.726959 32.182449,130.746460 
z"/>
<path fill="#FCCB2F" opacity="1.000000" stroke="none" 
	d="
M86.944763,34.518261 
	C86.892113,34.861927 86.484680,34.860226 86.282227,34.841736 
	C84.974113,34.515270 83.292961,33.589947 82.854980,33.998226 
	C79.712524,36.927547 77.217438,35.370422 74.373497,33.087914 
	C73.748711,31.859007 73.433929,30.771120 72.934380,29.386871 
	C72.631462,26.091801 72.513306,23.093094 72.713303,20.021931 
	C75.739548,20.625690 78.447639,21.301907 81.557358,21.975004 
	C82.359123,21.985973 82.759262,22.000061 83.456985,22.001682 
	C85.890945,24.352562 88.027328,26.715912 90.503876,29.158211 
	C89.561829,30.882973 88.279617,32.528782 86.944763,34.518261 
z"/>
<path fill="#F2D782" opacity="1.000000" stroke="none" 
	d="
M70.540047,18.479843 
	C70.561668,18.521225 70.518425,18.438459 70.540047,18.479843 
z"/>
<path fill="#FBCF48" opacity="1.000000" stroke="none" 
	d="
M60.172501,69.740288 
	C58.590652,69.646652 57.188999,69.313400 55.423141,68.962288 
	C56.830338,68.395905 58.601738,67.847397 60.373138,67.298889 
	C60.366325,68.032822 60.359512,68.766747 60.172501,69.740288 
z"/>
<path fill="#FBCF48" opacity="1.000000" stroke="none" 
	d="
M70.706802,68.722725 
	C68.553619,69.336639 66.146042,69.694336 63.395966,70.007751 
	C65.519783,69.464485 67.986092,68.965492 70.706802,68.722725 
z"/>
<path fill="#EBC151" opacity="1.000000" stroke="none" 
	d="
M55.140564,97.687378 
	C54.851902,98.499977 54.686703,99.076103 54.289406,99.843056 
	C53.780376,99.219803 53.503445,98.405716 53.087898,97.295662 
	C53.752174,96.582008 54.555065,96.164322 55.629402,95.871674 
	C55.688576,96.481438 55.476299,96.966164 55.140564,97.687378 
z"/>
<path fill="#5E3804" opacity="1.000000" stroke="none" 
	d="
M66.677246,102.101440 
	C66.421692,102.773216 65.972969,103.368660 65.202644,103.957474 
	C65.207802,103.482361 65.534569,103.013878 65.965195,102.276398 
	C66.069061,102.007408 66.484077,102.025124 66.677246,102.101440 
z"/>
<path fill="#B08437" opacity="1.000000" stroke="none" 
	d="
M63.725494,105.204391 
	C63.832844,105.613045 63.680946,106.211052 63.296700,107.032036 
	C63.198315,106.634583 63.332283,106.014168 63.725494,105.204391 
z"/>
</svg>